<svg width="1023" height="500" viewBox="0 0 1023 500" fill="none" xmlns="http://www.w3.org/2000/svg">
<path d="M34.3432 496.715C37.6327 500.662 43.2248 500.991 47.1722 498.031C87.304 466.122 110.659 439.807 110.659 409.872V75.9893C110.659 70.7261 106.383 66.7787 101.449 66.7787H45.5274C40.2643 66.7787 36.3169 71.055 36.3169 75.9893V398.359C36.3169 414.478 33.0274 420.399 3.42198 444.741C-0.525404 448.03 -1.1833 453.951 2.10619 457.899L34.3432 496.715Z" fill="#383534"/>
<path d="M201.782 398.689H370.532C375.796 398.689 379.743 394.413 379.743 389.479V349.347C379.743 344.084 375.467 340.137 370.532 340.137H268.887C267.242 340.137 265.927 338.821 265.927 337.176V299.347C265.927 297.702 267.242 296.386 268.887 296.386H361.322C366.585 296.386 370.532 292.11 370.532 287.176V247.044C370.532 241.781 366.256 237.833 361.322 237.833H268.887C267.242 237.833 265.927 236.518 265.927 234.873V200.991C265.927 199.346 267.242 198.031 268.887 198.031H370.532C375.796 198.031 379.743 193.754 379.743 188.82V148.688C379.743 143.425 375.467 139.478 370.532 139.478H201.782C196.518 139.478 192.571 143.754 192.571 148.688V389.15C192.242 394.413 196.518 398.689 201.782 398.689Z" fill="#383534"/>
<path d="M620.204 398.688H692.902C698.165 398.688 702.112 394.411 702.112 389.477V148.687C702.112 143.423 697.836 139.476 692.902 139.476H641.915C636.652 139.476 632.704 143.752 632.704 148.687V286.845C632.704 289.806 628.757 290.793 627.441 288.161L549.151 144.081C547.506 141.121 544.217 139.147 540.927 139.147H468.23C462.967 139.147 459.019 143.423 459.019 148.358V388.819C459.019 394.082 463.295 398.03 468.23 398.03H519.217C524.48 398.03 528.427 393.754 528.427 388.819V251.648C528.427 248.687 532.375 247.7 533.691 250.332L611.98 393.754C613.625 396.714 616.586 398.688 620.204 398.688Z" fill="#383534"/>
<path d="M958.034 398.689H1012.97C1018.23 398.689 1022.18 394.413 1022.18 389.479V148.688C1022.18 143.425 1017.9 139.478 1012.97 139.478H958.034C952.771 139.478 948.823 143.754 948.823 148.688V389.15C948.823 394.413 953.1 398.689 958.034 398.689Z" fill="#383534"/>
<path d="M644.211 0H1007.7C1012.96 0 1016.91 4.27633 1016.91 9.21057V56.9081C1016.91 62.1713 1012.63 66.1187 1007.7 66.1187H644.211C638.948 66.1187 635 61.8424 635 56.9081V9.21057C635 4.27633 639.277 0 644.211 0Z" fill="#FF7247"/>
<path d="M786.323 482.564C789.613 486.512 795.205 486.841 799.152 483.88C839.284 451.972 862.639 425.656 862.639 395.722V149.01C862.639 143.747 858.363 139.8 853.429 139.8H797.179C791.915 139.8 787.968 144.076 787.968 149.01V384.537C787.968 400.656 784.679 406.577 755.073 430.919C751.126 434.209 750.468 440.13 753.757 444.077L786.323 482.564Z" fill="#383534"/>
</svg>
